<?xml version="1.0" encoding="utf-8"?>
<!-- Generator: Adobe Illustrator 16.0.0, SVG Export Plug-In . SVG Version: 6.00 Build 0)  -->
<!DOCTYPE svg PUBLIC "-//W3C//DTD SVG 1.1//EN" "http://www.w3.org/Graphics/SVG/1.1/DTD/svg11.dtd">
<svg version="1.1" id="Layer_1" xmlns="http://www.w3.org/2000/svg" xmlns:xlink="http://www.w3.org/1999/xlink" x="0px" y="0px"
	 width="800px" height="600px" viewBox="0 0 800 600" enable-background="new 0 0 800 600" xml:space="preserve">
<text transform="matrix(1 0 0 1 237.5586 346.9082)"><tspan x="0" y="0" fill="#6A6B6E" font-family="'Gotham-Book'" font-size="18.4559" letter-spacing="1">CHRISTIA</tspan><tspan x="104.847" y="0" fill="#6A6B6E" font-family="'Gotham-Book'" font-size="18.4559" letter-spacing="5">N</tspan><tspan x="124.964" y="0" fill="#6A6B6E" font-family="'Gotham-Book'" font-size="18.4559" letter-spacing="1"> FELLOWSHIP</tspan></text>
<g>
	<path fill="#20A0DB" d="M267.133,282.34c3.642-3.115,5.418-6.862,5.418-11.399c0-9.153-8.161-13.25-16.25-13.25
		c-7.367,0-14.728,0.249-14.801,0.251c-0.809,0.027-1.449,0.69-1.449,1.499v54c0,0.828,0.672,1.5,1.5,1.5h17.78
		c8.281,0,17.22-6.69,17.22-17.5C276.551,289.925,271.964,285.626,267.133,282.34z M259.331,311.94h-16.28v-51.045
		c2.5-0.071,7.874-0.205,13.25-0.205c6.112,0,13.25,2.685,13.25,10.25c0,3.933-1.626,7.041-5.102,9.715
		c-2.569-1.327-6.183-2.103-9.915-2.103c-5.625,0-8.983,1.64-8.983,4.388c0,2.733,3.166,4.57,7.878,4.57
		c3.8,0,7.802-1.186,11.134-3.278c4.663,3.044,8.988,6.673,8.988,13.208C273.551,306.396,266.17,311.94,259.331,311.94z
		 M261.349,282.597c-2.488,1.231-5.265,1.913-7.92,1.913c-3.202,0-4.878-1.022-4.879-1.563c0.138-0.411,2.057-1.395,5.984-1.395
		C256.98,281.552,259.396,281.934,261.349,282.597z"/>
	<path fill="#20A0DB" d="M301.507,276.721c-5.541,0.163-11.59,5.095-14.956,8.307v-6.588c0-0.829-0.672-1.5-1.5-1.5
		s-1.5,0.671-1.5,1.5v35c0,0.828,0.672,1.5,1.5,1.5s1.5-0.672,1.5-1.5v-24.139c1.705-1.838,9.079-9.406,15.044-9.581
		c0.828-0.024,1.479-0.715,1.455-1.543C303.026,277.35,302.337,276.717,301.507,276.721z"/>
	<path fill="#20A0DB" d="M319.081,276.44c-9.139,0-16.03,7.738-16.03,18c0,0.138,0.002,0.593,0.006,0.638
		c0.231,11.729,6.833,19.862,16.214,19.862c9.202,0,13.84-6.882,14.033-7.175c0.454-0.69,0.264-1.616-0.425-2.073
		c-0.688-0.456-1.617-0.27-2.078,0.419c-0.159,0.238-3.983,5.829-11.53,5.829c-7.27,0-12.491-6.276-13.149-15.5h26.43
		c0.416,0,0.814-0.173,1.098-0.478c0.284-0.306,0.429-0.715,0.398-1.13C333.591,288.472,329.875,276.44,319.081,276.44z
		 M330.848,293.44h-24.771c0.419-8.049,5.869-14,13.005-14c4.406,0,7.745,2.534,9.924,7.531
		C330.067,289.41,330.597,291.884,330.848,293.44z"/>
	<path fill="#20A0DB" d="M441.36,312.297c-0.387,0.316-1.426,0.907-2.749-0.417c-1.603-1.603-1.474-10.638-1.388-16.616
		c0.023-1.658,0.047-3.29,0.047-4.823c0-8.403-1.956-14-11.5-14c-8.734,0-13.42,7.395-13.615,7.709
		c-0.437,0.704-0.22,1.629,0.484,2.065c0.702,0.435,1.629,0.221,2.064-0.484c0.039-0.063,3.983-6.291,11.066-6.291
		c6.514,0,8.5,2.57,8.5,11c0,1.056-0.013,2.166-0.027,3.292c-3.177,0.063-9.293,0.466-14.791,2.437
		c-7.589,2.719-9.182,6.814-9.182,9.771c0,4.308,1.855,6.549,3.413,7.671c1.59,1.146,3.65,1.727,5.98,1.727
		c1.739-0.001,3.628-0.323,5.581-0.975c3.912-1.304,7.373-3.391,9.445-4.792c0.346,2.054,0.907,3.537,1.8,4.43
		c1.238,1.239,2.562,1.688,3.751,1.688c1.271,0,2.386-0.513,3.079-1.12c0.615-0.54,0.674-1.464,0.145-2.088
		C442.938,311.856,441.992,311.78,441.36,312.297z M424.296,311.518c-3.59,1.197-6.902,1.071-8.858-0.34
		c-1.438-1.036-2.167-2.798-2.167-5.237c0-6.443,12.414-9.007,20.934-9.206c-0.044,3.691-0.04,6.836,0.12,9.421
		C432.938,307.178,428.891,309.985,424.296,311.518z"/>
	<path fill="#20A0DB" d="M389.373,291.803l14.158-12.228c0.627-0.542,0.696-1.489,0.154-2.116c-0.54-0.625-1.488-0.695-2.115-0.155
		l-19.52,16.858V251.94c0-0.829-0.672-1.5-1.5-1.5s-1.5,0.671-1.5,1.5v61c0,0.828,0.672,1.5,1.5,1.5s1.5-0.672,1.5-1.5v-14.813
		l5.051-4.362l16.786,20.623c0.296,0.364,0.729,0.553,1.164,0.553c0.333,0,0.668-0.11,0.946-0.337
		c0.643-0.522,0.739-1.468,0.216-2.11L389.373,291.803z"/>
	<path fill="#20A0DB" d="M562.155,276.567c-0.764-0.335-1.645,0.01-1.978,0.769c-0.116,0.264-8.304,18.867-14.497,32.558
		l-13.748-32.538c-0.323-0.762-1.202-1.121-1.966-0.798c-0.763,0.323-1.12,1.203-0.798,1.966l14.825,35.087
		c-1.846,4.048-3.389,7.366-4.285,9.158c-4.01,8.019-7.834,10.734-15.741,11.173c-0.827,0.046-1.461,0.754-1.415,1.581
		c0.045,0.799,0.706,1.417,1.497,1.417c0.027,0,0.056-0.001,0.084-0.002c10.19-0.566,14.411-5.132,18.259-12.827
		c3.971-7.941,19.856-44.034,20.531-45.567C563.258,277.786,562.913,276.901,562.155,276.567z"/>
	<path fill="#20A0DB" d="M524.741,315.688c1.271,0,2.386-0.513,3.079-1.12c0.615-0.54,0.674-1.464,0.145-2.088
		c-0.528-0.624-1.472-0.7-2.104-0.184c-0.387,0.316-1.425,0.907-2.749-0.417c-1.603-1.603-1.474-10.638-1.388-16.616
		c0.023-1.658,0.047-3.29,0.047-4.823c0-8.403-1.956-14-11.5-14c-8.734,0-13.42,7.395-13.615,7.709
		c-0.437,0.704-0.22,1.629,0.484,2.065c0.702,0.435,1.628,0.221,2.064-0.484c0.039-0.063,3.983-6.291,11.066-6.291
		c6.514,0,8.5,2.57,8.5,11c0,1.056-0.013,2.166-0.027,3.292c-3.177,0.063-9.293,0.466-14.791,2.437
		c-7.589,2.719-9.182,6.814-9.182,9.771c0,4.308,1.855,6.549,3.413,7.671c1.59,1.146,3.65,1.727,5.98,1.727
		c1.739-0.001,3.628-0.323,5.581-0.975c3.912-1.304,7.373-3.391,9.445-4.792c0.346,2.054,0.907,3.537,1.8,4.43
		C522.229,315.24,523.553,315.688,524.741,315.688z M508.796,311.518c-3.59,1.197-6.902,1.071-8.858-0.34
		c-1.438-1.036-2.167-2.798-2.167-5.237c0-6.443,12.414-9.007,20.934-9.206c-0.044,3.691-0.04,6.836,0.12,9.421
		C517.438,307.178,513.391,309.985,508.796,311.518z"/>
	<path fill="#20A0DB" d="M370.676,312.297c-0.387,0.316-1.426,0.907-2.749-0.417c-1.603-1.603-1.474-10.638-1.388-16.616
		c0.023-1.658,0.047-3.29,0.047-4.823c0-8.403-1.956-14-11.5-14c-8.734,0-13.42,7.395-13.615,7.709
		c-0.437,0.704-0.22,1.629,0.484,2.065c0.701,0.435,1.628,0.221,2.064-0.484c0.039-0.063,3.983-6.291,11.066-6.291
		c6.514,0,8.5,2.57,8.5,11c0,1.056-0.013,2.166-0.027,3.292c-3.177,0.063-9.293,0.466-14.791,2.437
		c-7.589,2.719-9.182,6.814-9.182,9.771c0,4.308,1.855,6.549,3.413,7.671c1.59,1.146,3.65,1.727,5.98,1.727
		c1.739-0.001,3.628-0.323,5.581-0.975c3.912-1.304,7.374-3.391,9.445-4.792c0.347,2.054,0.907,3.537,1.8,4.43
		c1.238,1.239,2.562,1.688,3.751,1.688c1.271,0,2.386-0.513,3.079-1.12c0.615-0.54,0.674-1.464,0.145-2.088
		C372.252,311.856,371.31,311.78,370.676,312.297z M353.611,311.518c-3.59,1.197-6.902,1.071-8.858-0.34
		c-1.438-1.036-2.167-2.798-2.167-5.237c0-6.443,12.414-9.007,20.934-9.206c-0.044,3.691-0.04,6.836,0.12,9.421
		C362.253,307.178,358.206,309.985,353.611,311.518z"/>
	<path fill="#20A0DB" d="M490.676,277.063c-0.759-0.33-1.643,0.021-1.972,0.782l-13.262,30.695
		c-1.543-3.848-4.137-10.333-6.265-15.73c0.91-2.313,1.708-4.365,2.267-5.838c1.047-2.762,0.866-5.682-0.473-7.62
		c-0.839-1.215-2.08-1.912-3.405-1.912s-2.566,0.697-3.405,1.911c-1.339,1.938-1.521,4.858-0.474,7.621
		c0.559,1.473,1.357,3.525,2.267,5.838c-2.128,5.397-4.722,11.883-6.264,15.73l-13.262-30.695c-0.329-0.761-1.214-1.113-1.972-0.782
		c-0.761,0.329-1.11,1.211-0.782,1.972l14.689,34c0.237,0.55,0.779,0.905,1.377,0.905c0.006,0,0.013,0,0.019,0
		c0.605-0.008,1.147-0.379,1.373-0.94c0.051-0.126,3.415-8.491,6.434-16.107c3.018,7.616,6.383,15.981,6.434,16.107
		c0.226,0.562,0.768,0.933,1.373,0.94c0.632-0.001,1.155-0.35,1.396-0.905l14.689-34
		C491.786,278.275,491.437,277.392,490.676,277.063z M468.64,285.909c-0.297,0.782-0.661,1.727-1.073,2.789
		c-0.413-1.062-0.777-2.007-1.074-2.789c-0.84-2.219-0.451-4.001,0.138-4.853c0.193-0.281,0.514-0.616,0.937-0.616
		s0.742,0.335,0.937,0.616C469.091,281.909,469.48,283.691,468.64,285.909z"/>
</g>
</svg>
